Jig: The Great Irish Dance-Off. BBC Documentary HD 720p x264 mp4 aac w/subtitles [aularon]



- - -
Synopsis
- - -
Award-winning filmaker Sue Bourne goes behind the normally closed doors of the world of competitive Irish dance in a documentary telling the story of the 40th Irish Dancing World Championships. Thousands of dancers, their families and teachers from around the world descend on Glasgow for seven drama-filled days.



- - -
Screenshots
- - -  
http://image.bayimg.com/najnpaadn.jpg 
http://image.bayimg.com/oajnbaadn.jpg 
http://image.bayimg.com/oajneaadn.jpg 
http://image.bayimg.com/oajnfaadn.jpg 
http://image.bayimg.com/oajniaadn.jpg 
http://image.bayimg.com/oajnkaadn.jpg 
http://image.bayimg.com/oajngaadn.jpg 
http://image.bayimg.com/oajnjaadn.jpg 
http://image.bayimg.com/oajnlaadn.jpg 
http://image.bayimg.com/oajnmaadn.jpg 
http://image.bayimg.com/oajnnaadn.jpg



- - -
URL
- - -  
http://www.bbc.co.uk/programmes/b0146g5p


- - -
Technical Details
- - -

General
Complete name                    : BBC.Jig.The.Great.Irish.Dance-Off/Jig_-_Jig_The_Great_Irish_Dance-Off_b0146g5p_default.mp4
Format                           : MPEG-4
Format profile                   : Base Media
Codec ID                         : isom
File size                        : 1.68 GiB
Duration                         : 1h 30mn
Overall bit rate                 : 2 663 Kbps
Movie name                       : Jig: The Great Irish Dance-Off
Album                            : Jig
Performer                        : Jig
Genre                            : Factual,Arts, Culture & the Media
Recorded date                    : 2011-09-01T21:00:00+01:00
Tagged date                      : UTC 2011-09-02 08:37:26
Writing application              : Lavf53.10.0
Cover                            : Yes
Comment                          : Recorded using get_iplayer, by Aularon.
rtng                             : 2
stik                             : 1
desc                             : Documentary telling the story of the 40th Irish Dancing World Championships. Thousands of dancers, their families and teachers from around the world descend on Glasgow.
tvnn                             : BBC HD
tvsh                             : Jig
tven                             : b0146g5p
catg                             : Factual,Arts, Culture & the Media

Video
ID                               : 1
Format                           : AVC
Format/Info                      : Advanced Video Codec
Format profile                   : High@L4.1
Format settings, CABAC           : Yes
Format settings, ReFrames        : 6 frames
Codec ID                         : avc1
Codec ID/Info                    : Advanced Video Coding
Duration                         : 1h 30mn
Bit rate mode                    : Variable
Bit rate                         : 2 562 Kbps
Maximum bit rate                 : 3 500 Kbps
Width                            : 1 280 pixels
Height                           : 720 pixels
Display aspect ratio             : 16:9
Frame rate mode                  : Constant
Frame rate                       : 25.000 fps
Standard                         : PAL
Color space                      : YUV
Chroma subsampling               : 4:2:0
Bit depth                        : 8 bits
Scan type                        : Progressive
Bits/(Pixel*Frame)               : 0.111
Stream size                      : 1.61 GiB (96%)

Audio
ID                               : 2
Format                           : AAC
Format/Info                      : Advanced Audio Codec
Format profile                   : HE-AAC / LC
Codec ID                         : 40
Duration                         : 1h 30mn
Bit rate mode                    : Constant
Bit rate                         : 96.0 Kbps
Channel(s)                       : 2 channels
Channel positions                : Front: L R
Sampling rate                    : 48.0 KHz / 24.0 KHz
Compression mode                 : Lossy
Stream size                      : 61.1 MiB (4%)


                  ______                                     
                 (____  \                                    
                  ____)  )_____  ____ _____ _   _  ___ _____ 
                 |  __  (| ___ |/ ___|____ | | | |/___) ___ |
            _ _ _| |__)  ) ____( (___/ ___ | |_| |___ | ____|
           (_|_|_)______/|_____)\____)_____|____/(___/|_____)
                                                              
                   ______ _                 _             
                  / _____) |               (_)            
                 ( (____ | |__  _____  ____ _ ____   ____ 
                  \____ \|  _ \(____ |/ ___) |  _ \ / _  |
                  _____) ) | | / ___ | |   | | | | ( (_| |
                 (______/|_| |_\_____|_|   |_|_| |_|\___ |
                                                   (_____|
                                  _      
                                 (_)     
                                  _  ___ 
                                 | |/___)
                                 | |___ |
                                 |_(___/ 

                    _______             _               
                   (_______)           (_)              
                    _       _____  ____ _ ____   ____   
                   | |     (____ |/ ___) |  _ \ / _  |  
                   | |_____/ ___ | |   | | | | ( (_| |_ 
                    \______)_____|_|   |_|_| |_|\___ (_)
                                               (_____|  

                                    ;)

